<svg id="Layer_1" data-name="Layer 1" xmlns="http://www.w3.org/2000/svg" viewBox="0 0 15.74 22.66"><title>bitclout</title><path d="M20.26,13.25l-1.14,1.46-1.39,1.8-1.8,2.28L14.16,21c-.56.72-1.11,1.44-1.67,2.15-.1.13-.19.07-.27,0L11,21.59l-1.65-2.1c-.64-.82-1.27-1.64-1.91-2.45l-2-2.54c-.28-.35-.54-.71-.82-1.06-.13-.15-.1-.22.07-.3C5.44,12.77,6.2,12.38,7,12s1.43-.74,2.15-1.09c.18-.09.2-.16.08-.32C8.54,9.77,7.9,8.94,7.26,8.13l-2-2.55C5,5.31,4.82,5,4.6,4.75s-.11-.2.06-.29q1.05-.51,2.1-1l4-2.07Q11.5,1,12.22.62a.37.37,0,0,1,.29,0c1,.47,1.9,1,2.85,1.44l3,1.53,1.72.87a1,1,0,0,1,.14.12c-.26.32-.51.64-.76,1l-1.25,1.6L16,10c-.18.22-.35.46-.54.68s0,.21.1.25c.27.16.56.29.84.43,1,.51,2,1,3,1.51ZM18.42,4.59l-.22-.13-1.74-.89-2-1c-.56-.29-1.12-.59-1.7-.87-.19-.09-.38-.24-.64-.11-.85.45-1.71.88-2.57,1.32L7.24,4.09l-.94.5,1.33.68,2.2,1.12c.76.39,1.52.79,2.3,1.16a.58.58,0,0,0,.45,0c.65-.3,1.28-.63,1.91-1L17.55,5Zm-12,1,0,.06a.61.61,0,0,0,.07.14L9.39,9.51,11.29,12c.3.38.59.76.89,1.13.07.09.16.25.31.08l.45-.59c.43-.55.85-1.1,1.28-1.64l1.63-2.07,2-2.49c.19-.24.38-.5.61-.81a1.63,1.63,0,0,0-.21,0l-1.54.78-1.78.93c-.74.37-1.49.74-2.23,1.13a.57.57,0,0,1-.59,0c-.91-.49-1.83-1-2.75-1.43L6.92,5.84Zm-.13,8.7,1.54,2,1.42,1.82,1.86,2.35,1.06,1.37c.12.16.24.19.37,0s.26-.34.39-.51c.49-.64,1-1.27,1.48-1.9l1.82-2.31c.59-.73,1.17-1.48,1.74-2.22l.44-.58c-.11,0-.15,0-.18,0l-2.93,1.5c-.91.48-1.83.94-2.75,1.41a.37.37,0,0,1-.39,0l-1.68-.85-4-2.05A.72.72,0,0,0,6.3,14.27Zm12.12-1L17,12.53l-1.94-1a.34.34,0,0,0-.31.07c-.76.94-1.5,1.89-2.24,2.85-.14.17-.22.1-.31,0-.27-.35-.53-.7-.8-1-.46-.6-.93-1.2-1.4-1.79a.22.22,0,0,0-.33-.08L7.15,12.81c-.26.13-.51.28-.83.45a.92.92,0,0,0,.18.12L9.1,14.7l3,1.56a.47.47,0,0,0,.4,0c1.14-.56,2.27-1.13,3.41-1.71L18,13.48Z" transform="translate(-4.52 -0.6)"/></svg>